<svg xmlns="http://www.w3.org/2000/svg" version="1.1" xmlns:xlink="http://www.w3.org/1999/xlink" xmlns:svgjs="http://svgjs.com/svgjs" width="1440" height="560" preserveAspectRatio="none" viewBox="0 0 1440 560"><g mask="url(&quot;#SvgjsMask1032&quot;)" fill="none"><rect width="1440" height="560" x="0" y="0" fill="#0e2a47"></rect><path d="M1328.415,634.184C1364.115,634.918,1402.959,630.18,1422.425,600.245C1443.328,568.1,1441.211,525.055,1420.262,492.94C1400.948,463.331,1363.75,455.037,1328.415,456.126C1295.313,457.146,1263.397,470.212,1245.873,498.314C1227.286,528.121,1222.635,566.489,1240.873,596.511C1258.551,625.611,1294.373,633.484,1328.415,634.184" fill="rgba(28, 83, 142, 0.4)" class="triangle-float2"></path><path d="M1401.435,425.897C1441.233,424.446,1479.727,407.894,1499.831,373.517C1520.118,338.826,1517.165,296.284,1497.836,261.051C1477.674,224.299,1443.345,195.034,1401.435,194.162C1358.173,193.262,1320.011,219.738,1297.829,256.891C1275.019,295.095,1266.522,343.24,1289.777,381.174C1312.236,417.81,1358.492,427.462,1401.435,425.897" fill="rgba(28, 83, 142, 0.4)" class="triangle-float1"></path><path d="M1032.171,125.206C1047.592,125.69,1059.203,112.378,1066.218,98.636C1072.549,86.233,1073.038,71.452,1065.627,59.663C1058.641,48.55,1045.293,44.823,1032.171,44.476C1018.236,44.107,1002.547,45.779,995.502,57.808C988.409,69.918,994.93,84.28,1001.637,96.608C1008.78,109.737,1017.232,124.737,1032.171,125.206" fill="rgba(28, 83, 142, 0.4)" class="triangle-float2"></path><path d="M242.866,504.585C294.591,506.676,340.287,471.473,364.377,425.653C386.893,382.827,380.134,332.111,355.408,290.522C331.282,249.943,290.033,223.274,242.866,221.275C191.793,219.11,136.816,235.266,112.491,280.227C88.949,323.74,112.403,373.695,137.26,416.47C161.948,458.956,193.768,502.6,242.866,504.585" fill="rgba(28, 83, 142, 0.4)" class="triangle-float2"></path><path d="M660.857,258.075C688.991,258.036,710.18,234.229,722.325,208.851C732.82,186.921,728.503,162.372,716.878,141.019C704.595,118.458,686.539,96.49,660.857,95.944C634.484,95.383,613.196,115.394,600.551,138.544C588.478,160.647,587.746,186.539,599.09,209.024C611.783,234.182,632.678,258.114,660.857,258.075" fill="rgba(28, 83, 142, 0.4)" class="triangle-float2"></path><path d="M29.285,612.363C60.912,613.884,97.949,616.27,114.926,589.542C132.594,561.726,118.979,526.351,101.77,498.248C85.492,471.665,60.425,451.071,29.285,449.686C-4.355,448.19,-39.119,461.732,-55.3,491.262C-71.006,519.924,-61.898,555.143,-43.183,581.937C-27.104,604.958,1.237,611.014,29.285,612.363" fill="rgba(28, 83, 142, 0.4)" class="triangle-float1"></path><path d="M210.159,507.334C239.006,507.203,266.246,491.106,279.081,465.272C290.793,441.697,280.966,414.984,267.181,392.558C254.213,371.46,234.886,354.516,210.159,353.142C182.913,351.628,155.386,362.363,140.992,385.546C125.848,409.937,125.968,440.937,140.146,465.902C154.5,491.175,181.094,507.466,210.159,507.334" fill="rgba(28, 83, 142, 0.4)" class="triangle-float1"></path><path d="M1388.313,269.663C1432.263,268.498,1469.252,240.622,1491.598,202.759C1514.375,164.166,1524.336,116.337,1501.594,77.724C1479.119,39.565,1432.598,27.706,1388.313,27.393C1343.336,27.075,1296.065,37.963,1272.221,76.101C1247.14,116.218,1250.75,167.926,1275.085,208.5C1298.733,247.929,1342.352,270.882,1388.313,269.663" fill="rgba(28, 83, 142, 0.4)" class="triangle-float1"></path></g><defs><mask id="SvgjsMask1032"><rect width="1440" height="560" fill="#ffffff"></rect></mask><style>
            @keyframes float1 {
                0%{transform: translate(0, 0)}
                50%{transform: translate(-10px, 0)}
                100%{transform: translate(0, 0)}
            }

            .triangle-float1 {
                animation: float1 5s infinite;
            }

            @keyframes float2 {
                0%{transform: translate(0, 0)}
                50%{transform: translate(-5px, -5px)}
                100%{transform: translate(0, 0)}
            }

            .triangle-float2 {
                animation: float2 4s infinite;
            }

            @keyframes float3 {
                0%{transform: translate(0, 0)}
                50%{transform: translate(0, -10px)}
                100%{transform: translate(0, 0)}
            }

            .triangle-float3 {
                animation: float3 6s infinite;
            }
        </style></defs></svg>